<svg width="1200" height="630" viewBox="0 0 1200 630" xmlns="http://www.w3.org/2000/svg">
  <defs>
    <linearGradient id="bg" x1="0" y1="0" x2="1" y2="1">
      <stop offset="0%" stop-color="#0a0a0a"/>
      <stop offset="50%" stop-color="#141518"/>
      <stop offset="100%" stop-color="#0a0a0a"/>
    </linearGradient>
    <linearGradient id="accent" x1="0" y1="0" x2="1" y2="1">
      <stop offset="0%" stop-color="#1b9e6b"/>
      <stop offset="50%" stop-color="#2dd4a0"/>
      <stop offset="100%" stop-color="#1b9e6b"/>
    </linearGradient>
  </defs>
  <rect width="1200" height="630" fill="url(#bg)"/>
  <rect width="1200" height="630" fill="url(#accent)" opacity="0.06"/>
  <rect x="48" y="48" width="1104" height="534" rx="20" fill="none" stroke="#2c2e33" stroke-width="1"/>
  <text x="60" y="200" font-family="system-ui,sans-serif" font-size="64" font-weight="800" fill="#f0f0f0" letter-spacing="-0.02em">Talk to your database</text>
  <text x="60" y="280" font-family="system-ui,sans-serif" font-size="64" font-weight="800" fill="#1b9e6b" letter-spacing="-0.02em">like a human.</text>
  <text x="60" y="350" font-family="system-ui,sans-serif" font-size="26" font-weight="500" fill="#8b8d91">No SQL required. Ask in plain English, get instant answers,</text>
  <text x="60" y="390" font-family="system-ui,sans-serif" font-size="26" font-weight="500" fill="#8b8d91">and trust the logic with our verifiable AI engine.</text>
  <rect x="60" y="440" width="220" height="56" rx="28" fill="#1b9e6b"/>
  <text x="170" y="477" font-family="system-ui,sans-serif" font-size="20" font-weight="700" fill="#fff" text-anchor="middle">Start for free</text>
  <g transform="translate(820, 180) scale(1.8)">
    <path d="M 52 44 Q 52 30 66 30 L 190 30 Q 204 30 204 44 L 204 138 Q 204 152 190 152 L 116 152 L 88 176 L 92 152 L 66 152 Q 52 152 52 138 Z" stroke="#1b9e6b" stroke-width="5" fill="none" opacity="0.3"/>
    <g stroke="#1b9e6b" stroke-width="5" stroke-linecap="round" fill="none" opacity="0.3">
      <ellipse cx="128" cy="66" rx="34" ry="11"/>
      <path d="M 94 66 L 94 108 Q 94 119 128 119 Q 162 119 162 108 L 162 66"/>
      <path d="M 94 87 Q 94 98 128 98 Q 162 98 162 87"/>
    </g>
    <circle cx="182" cy="46" r="3.5" fill="#1b9e6b" opacity="0.3"/>
  </g>
  <text x="820" y="570" font-family="system-ui,sans-serif" font-size="18" font-weight="600" fill="#56585c">BoloDB — Ask your data. Trust the answer.</text>
  <rect x="1060" y="550" width="92" height="32" rx="8" fill="#1b9e6b" opacity="0.15"/>
  <text x="1106" y="571" font-family="system-ui,sans-serif" font-size="14" font-weight="700" fill="#1b9e6b" text-anchor="middle">bolodb.dev</text>
</svg>
